<?xml version="1.0" encoding="UTF-8"?>
<svg width="1080" height="360" viewBox="0 0 1080 360" fill="none" xmlns="http://www.w3.org/2000/svg">
  <defs>
    <linearGradient id="g1" x1="0" y1="0" x2="1" y2="1">
      <stop offset="0%" stop-color="#8ab4ff"/>
      <stop offset="100%" stop-color="#22d3ee"/>
    </linearGradient>
    <style>
      .box{rx:14; fill:rgba(255,255,255,0.06); stroke:rgba(255,255,255,0.18)}
      .title{fill:#e6e9ef; font:600 16px/1.2 system-ui, -apple-system, Segoe UI, Roboto}
      .sub{fill:#cbd5e1; font:500 12px/1.2 system-ui, -apple-system, Segoe UI, Roboto}
    </style>
  </defs>
  <rect width="1080" height="360" fill="#0b1020"/>
  <!-- Flow line -->
  <path d="M60 180 H1020" stroke="url(#g1)" stroke-width="3" stroke-linecap="round"/>
  <!-- Steps -->
  <g transform="translate(100,110)">
    <rect class="box" width="150" height="120"/>
    <text class="title" x="16" y="36">Source & Lint</text>
    <text class="sub" x="16" y="64">ESLint, Prettier</text>
  </g>
  <g transform="translate(280,110)">
    <rect class="box" width="150" height="120"/>
    <text class="title" x="16" y="36">Tests</text>
    <text class="sub" x="16" y="64">Jest/React Testing</text>
  </g>
  <g transform="translate(460,110)">
    <rect class="box" width="150" height="120"/>
    <text class="title" x="16" y="36">Build</text>
    <text class="sub" x="16" y="64">Optimized bundle</text>
  </g>
  <g transform="translate(640,110)">
    <rect class="box" width="150" height="120"/>
    <text class="title" x="16" y="36">Security</text>
    <text class="sub" x="16" y="64">Dependency scan</text>
  </g>
  <g transform="translate(820,110)">
    <rect class="box" width="160" height="120"/>
    <text class="title" x="16" y="36">Deploy</text>
    <text class="sub" x="16" y="64">Blue/Green/Canary</text>
  </g>
  <!-- Dots -->
  <circle cx="175" cy="180" r="5" fill="url(#g1)"/>
  <circle cx="355" cy="180" r="5" fill="url(#g1)"/>
  <circle cx="535" cy="180" r="5" fill="url(#g1)"/>
  <circle cx="715" cy="180" r="5" fill="url(#g1)"/>
  <circle cx="905" cy="180" r="5" fill="url(#g1)"/>
</svg>
